<?xml version="1.0" standalone="no"?>
<!DOCTYPE svg PUBLIC "-//W3C//DTD SVG 20010904//EN"
 "http://www.w3.org/TR/2001/REC-SVG-20010904/DTD/svg10.dtd">
<svg version="1.0" xmlns="http://www.w3.org/2000/svg"
 width="1024.000000pt" height="1024.000000pt" viewBox="0 0 1024.000000 1024.000000"
 preserveAspectRatio="xMidYMid meet">
<metadata>
Created by potrace 1.14, written by Peter Selinger 2001-2017
</metadata>
<g transform="translate(0.000000,1024.000000) scale(0.100000,-0.100000)"
fill="#000000" stroke="none">
<path d="M1400 9275 c0 -41 2 -45 25 -45 24 0 25 -2 25 -65 0 -58 2 -65 20
-65 18 0 20 -7 20 -65 0 -58 2 -65 20 -65 18 0 20 -7 20 -65 0 -63 1 -65 25
-65 24 0 25 -2 25 -65 0 -58 2 -65 20 -65 18 0 20 -7 20 -70 0 -68 1 -70 25
-70 24 0 25 -2 25 -65 0 -58 2 -65 20 -65 18 0 20 -7 20 -65 0 -58 2 -65 20
-65 18 0 20 -7 20 -65 0 -63 1 -65 25 -65 24 0 25 -2 25 -65 0 -58 2 -65 20
-65 18 0 20 -7 20 -65 0 -58 2 -65 20 -65 18 0 20 -7 20 -65 0 -63 1 -65 25
-65 24 0 25 -2 25 -65 0 -58 2 -65 20 -65 18 0 20 -7 20 -70 0 -68 1 -70 25
-70 24 0 25 -2 25 -65 0 -58 2 -65 20 -65 18 0 20 -7 20 -65 0 -58 2 -65 20
-65 18 0 20 -7 20 -65 0 -63 1 -65 25 -65 24 0 25 -2 25 -65 0 -58 2 -65 20
-65 18 0 20 -7 20 -65 0 -58 2 -65 20 -65 18 0 20 -7 20 -65 0 -63 1 -65 25
-65 24 0 25 -2 25 -65 0 -58 2 -65 20 -65 18 0 20 -7 20 -65 0 -63 1 -65 25
-65 24 0 25 -2 25 -70 0 -63 2 -70 20 -70 18 0 20 -7 20 -65 0 -58 2 -65 20
-65 18 0 20 -7 20 -65 0 -63 1 -65 25 -65 24 0 25 -2 25 -65 0 -58 2 -65 20
-65 18 0 20 -7 20 -65 0 -58 2 -65 20 -65 18 0 20 -7 20 -65 0 -63 1 -65 25
-65 24 0 25 -2 25 -65 0 -58 2 -65 20 -65 18 0 20 -7 20 -65 0 -63 1 -65 25
-65 24 0 25 -2 25 -70 0 -63 2 -70 20 -70 18 0 20 -7 20 -65 0 -58 2 -65 20
-65 18 0 20 -7 20 -65 0 -63 1 -65 25 -65 24 0 25 -2 25 -65 0 -58 2 -65 20
-65 18 0 20 -7 20 -65 0 -58 2 -65 20 -65 18 0 20 -7 20 -65 0 -63 1 -65 25
-65 24 0 25 -2 25 -65 0 -58 2 -65 20 -65 18 0 20 -7 20 -65 0 -58 2 -65 20
-65 18 0 20 -7 20 -65 0 -63 1 -65 25 -65 24 0 25 -2 25 -70 0 -63 2 -70 20
-70 18 0 20 -7 20 -65 0 -63 1 -65 25 -65 24 0 25 -2 25 -65 0 -58 2 -65 20
-65 18 0 20 -7 20 -65 0 -58 2 -65 20 -65 18 0 20 -7 20 -65 0 -63 1 -65 25
-65 24 0 25 -2 25 -65 0 -58 2 -65 20 -65 18 0 20 -7 20 -65 0 -58 2 -65 20
-65 18 0 20 -7 20 -65 0 -63 1 -65 25 -65 24 0 25 -2 25 -70 0 -63 2 -70 20
-70 18 0 20 -7 20 -65 0 -63 1 -65 25 -65 24 0 25 -2 25 -65 0 -58 2 -65 20
-65 18 0 20 -7 20 -65 0 -58 2 -65 20 -65 18 0 20 -7 20 -65 0 -63 1 -65 25
-65 24 0 25 -2 25 -65 0 -58 2 -65 20 -65 18 0 20 -7 20 -65 0 -58 2 -65 20
-65 18 0 20 -7 20 -65 0 -63 1 -65 25 -65 24 0 25 -2 25 -65 0 -58 2 -65 20
-65 18 0 20 -7 20 -70 0 -68 1 -70 25 -70 24 0 25 -2 25 -65 0 -58 2 -65 20
-65 18 0 20 -7 20 -65 0 -58 2 -65 20 -65 18 0 20 -7 20 -65 0 -63 1 -65 25
-65 23 0 25 -4 25 -45 l0 -45 1050 0 1050 0 0 65 c0 58 2 65 20 65 18 0 20 7
20 70 0 63 2 70 20 70 18 0 20 7 20 65 0 63 1 65 25 65 24 0 25 2 25 65 0 58
2 65 20 65 18 0 20 7 20 65 0 58 2 65 20 65 18 0 20 7 20 65 0 63 1 65 25 65
24 0 25 2 25 65 0 58 2 65 20 65 18 0 20 7 20 65 0 63 1 65 25 65 24 0 25 2
25 65 0 58 2 65 20 65 18 0 20 7 20 70 0 63 2 70 20 70 18 0 20 7 20 65 0 63
1 65 25 65 24 0 25 2 25 65 0 58 2 65 20 65 18 0 20 7 20 65 0 58 2 65 20 65
18 0 20 7 20 65 0 63 1 65 25 65 24 0 25 2 25 65 0 58 2 65 20 65 18 0 20 7
20 65 0 63 1 65 25 65 24 0 25 2 25 65 0 58 2 65 20 65 18 0 20 7 20 65 0 58
2 65 20 65 18 0 20 7 20 70 0 68 1 70 25 70 24 0 25 2 25 65 0 58 2 65 20 65
18 0 20 7 20 65 0 58 2 65 20 65 18 0 20 7 20 65 0 63 1 65 25 65 24 0 25 2
25 65 0 58 2 65 20 65 18 0 20 7 20 65 0 63 1 65 25 65 24 0 25 2 25 65 0 58
2 65 20 65 18 0 20 7 20 65 0 58 2 65 20 65 18 0 20 7 20 70 0 68 1 70 25 70
24 0 25 2 25 65 0 58 2 65 20 65 18 0 20 7 20 65 0 58 2 65 20 65 18 0 20 7
20 65 0 63 1 65 25 65 24 0 25 2 25 65 0 58 2 65 20 65 18 0 20 7 20 65 0 58
2 65 20 65 18 0 20 7 20 65 0 63 1 65 25 65 24 0 25 2 25 65 0 58 2 65 20 65
18 0 20 7 20 65 0 63 1 65 25 65 24 0 25 2 25 70 0 63 2 70 20 70 18 0 20 7
20 65 0 58 2 65 20 65 18 0 20 7 20 65 0 63 1 65 25 65 24 0 25 2 25 65 0 58
2 65 20 65 18 0 20 7 20 65 0 58 2 65 20 65 18 0 20 7 20 65 0 63 1 65 25 65
24 0 25 2 25 65 0 58 2 65 20 65 18 0 20 7 20 65 0 63 1 65 25 65 24 0 25 2
25 70 0 63 2 70 20 70 18 0 20 7 20 65 0 58 2 65 20 65 18 0 20 7 20 65 0 63
1 65 25 65 24 0 25 2 25 65 0 58 2 65 20 65 18 0 20 7 20 65 0 58 2 65 20 65
18 0 20 7 20 65 0 63 1 65 25 65 24 0 25 2 25 65 0 58 2 65 20 65 18 0 20 7
20 65 0 63 1 65 25 65 24 0 25 2 25 65 0 58 2 65 20 65 18 0 20 7 20 70 0 63
2 70 20 70 18 0 20 7 20 65 0 63 1 65 25 65 24 0 25 2 25 65 0 58 2 65 20 65
18 0 20 7 20 65 0 58 2 65 20 65 18 0 20 7 20 65 0 63 1 65 25 65 24 0 25 2
25 65 0 58 2 65 20 65 18 0 20 7 20 65 0 63 1 65 25 65 24 0 25 2 25 65 0 58
2 65 20 65 15 0 20 7 20 25 l0 25 -940 0 -940 0 0 -25 c0 -18 -5 -25 -20 -25
-18 0 -20 -7 -20 -85 0 -84 0 -85 -25 -85 -24 0 -25 -2 -25 -65 0 -58 -2 -65
-20 -65 -19 0 -20 -7 -20 -90 0 -89 0 -90 -25 -90 -24 0 -25 -2 -25 -65 0 -58
-2 -65 -20 -65 -18 0 -20 -7 -20 -85 0 -78 -2 -85 -20 -85 -18 0 -20 -7 -20
-65 0 -63 -1 -65 -25 -65 -25 0 -25 -1 -25 -90 0 -83 -1 -90 -20 -90 -18 0
-20 -7 -20 -65 0 -58 -2 -65 -20 -65 -18 0 -20 -7 -20 -65 0 -63 -1 -65 -25
-65 -25 0 -25 -1 -25 -90 0 -83 -1 -90 -20 -90 -18 0 -20 -7 -20 -65 0 -63 -1
-65 -25 -65 -25 0 -25 -1 -25 -85 0 -78 -2 -85 -20 -85 -18 0 -20 -7 -20 -65
0 -58 -2 -65 -20 -65 -19 0 -20 -7 -20 -90 0 -89 0 -90 -25 -90 -24 0 -25 -2
-25 -65 0 -58 -2 -65 -20 -65 -18 0 -20 -7 -20 -85 0 -78 -2 -85 -20 -85 -18
0 -20 -7 -20 -70 0 -68 -1 -70 -25 -70 -24 0 -25 -2 -25 -65 0 -58 -2 -65 -20
-65 -18 0 -20 -7 -20 -85 0 -84 0 -85 -25 -85 -24 0 -25 -2 -25 -65 0 -58 -2
-65 -20 -65 -19 0 -20 -7 -20 -90 0 -83 -1 -90 -20 -90 -18 0 -20 -7 -20 -65
0 -63 -1 -65 -25 -65 -25 0 -25 -1 -25 -85 0 -78 -2 -85 -20 -85 -18 0 -20 -7
-20 -70 0 -63 -2 -70 -20 -70 -18 0 -20 -7 -20 -85 0 -84 0 -85 -25 -85 -24 0
-25 -2 -25 -65 0 -58 -2 -65 -20 -65 -18 0 -20 -7 -20 -65 0 -63 -1 -65 -25
-65 -25 0 -25 -1 -25 -90 0 -83 -1 -90 -20 -90 -18 0 -20 -7 -20 -65 0 -58 -2
-65 -20 -65 -18 0 -20 -7 -20 -85 0 -84 0 -85 -25 -85 -24 0 -25 -2 -25 -65 0
-58 -2 -65 -20 -65 -19 0 -20 -7 -20 -90 0 -83 -1 -90 -20 -90 -18 0 -20 -7
-20 -65 0 -63 -1 -65 -25 -65 -24 0 -25 -2 -25 -65 0 -58 -2 -65 -20 -65 -19
0 -20 -7 -20 -90 0 -89 0 -90 -25 -90 -24 0 -25 -2 -25 -65 0 -58 -2 -65 -20
-65 -18 0 -20 -7 -20 -85 0 -78 -2 -85 -20 -85 -18 0 -20 -7 -20 -65 0 -63 -1
-65 -25 -65 -25 0 -25 -1 -25 -90 0 -83 -1 -90 -20 -90 -18 0 -20 -7 -20 -65
0 -58 -2 -65 -20 -65 -13 0 -20 -7 -20 -20 0 -15 -7 -20 -25 -20 -24 0 -25 2
-25 65 0 58 -2 65 -20 65 -18 0 -20 7 -20 85 0 78 -2 85 -20 85 -18 0 -20 7
-20 65 0 63 -1 65 -25 65 -25 0 -25 1 -25 90 0 83 -1 90 -20 90 -18 0 -20 7
-20 65 0 63 -1 65 -25 65 -25 0 -25 1 -25 85 0 78 -2 85 -20 85 -18 0 -20 7
-20 70 0 63 -2 70 -20 70 -18 0 -20 7 -20 65 0 63 -1 65 -25 65 -25 0 -25 1
-25 85 0 78 -2 85 -20 85 -18 0 -20 7 -20 65 0 58 -2 65 -20 65 -19 0 -20 7
-20 90 0 89 0 90 -25 90 -24 0 -25 2 -25 65 0 58 -2 65 -20 65 -18 0 -20 7
-20 85 0 84 0 85 -25 85 -24 0 -25 2 -25 65 0 58 -2 65 -20 65 -18 0 -20 7
-20 70 0 63 -2 70 -20 70 -18 0 -20 7 -20 85 0 84 0 85 -25 85 -24 0 -25 2
-25 65 0 58 -2 65 -20 65 -19 0 -20 7 -20 90 0 83 -1 90 -20 90 -18 0 -20 7
-20 65 0 63 -1 65 -25 65 -25 0 -25 1 -25 85 0 78 -2 85 -20 85 -18 0 -20 7
-20 65 0 63 -1 65 -25 65 -25 0 -25 1 -25 90 0 83 -1 90 -20 90 -18 0 -20 7
-20 65 0 58 -2 65 -20 65 -18 0 -20 7 -20 65 0 63 -1 65 -25 65 -25 0 -25 1
-25 90 0 83 -1 90 -20 90 -18 0 -20 7 -20 65 0 58 -2 65 -20 65 -18 0 -20 7
-20 85 0 84 0 85 -25 85 -24 0 -25 2 -25 65 0 58 -2 65 -20 65 -19 0 -20 7
-20 90 0 89 0 90 -25 90 -24 0 -25 2 -25 65 0 58 -2 65 -20 65 -18 0 -20 7
-20 65 0 58 -2 65 -20 65 -19 0 -20 7 -20 90 0 89 0 90 -25 90 -24 0 -25 2
-25 65 0 58 -2 65 -20 65 -18 0 -20 7 -20 85 0 78 -2 85 -20 85 -18 0 -20 7
-20 65 0 63 -1 65 -25 65 -25 0 -25 1 -25 90 0 83 -1 90 -20 90 -18 0 -20 7
-20 65 0 63 -1 65 -25 65 -24 0 -25 2 -25 65 0 58 -2 65 -20 65 -19 0 -20 7
-20 90 0 83 -1 90 -20 90 -18 0 -20 7 -20 65 0 63 -1 65 -25 65 -24 0 -25 2
-25 65 l0 65 -940 0 -940 0 0 -45z"/>
</g>
</svg>
